PathFileType	4	(X/Y/Z)	C:/Users/opensim2020/Desktop/walking_exp_matlab/subject01_walking13_straight_04.trc	
DataRate	CameraRate	NumFrames	NumMarkers	Units	OrigDataRate	OrigDataStartFrame	OrigNumFrames	
100.00	100.00	4	42	mm	100.00	2210	135	
Frame#	Time	LFHD			RFHD			LBHD			RBHD			C7			T10			CLAV			STRN			RBAK			LSHO			LUPA			LELB			LFRM			LWRA			LWRB			LFIN			RSHO			RUPA			RELB			RFRM			RWRA			RWRB			RFIN			LASI			RASI			LPSI			RPSI			LTHI			LKNE			LTIB			LANK			LHEE			LTOE			RTHI			RKNE			RTIB			RANK			RHEE			RTOE			*39			*40			*41			
		X1	Y1	Z1	X2	Y2	Z2	X3	Y3	Z3	X4	Y4	Z4	X5	Y5	Z5	X6	Y6	Z6	X7	Y7	Z7	X8	Y8	Z8	X9	Y9	Z9	X10	Y10	Z10	X11	Y11	Z11	X12	Y12	Z12	X13	Y13	Z13	X14	Y14	Z14	X15	Y15	Z15	X16	Y16	Z16	X17	Y17	Z17	X18	Y18	Z18	X19	Y19	Z19	X20	Y20	Z20	X21	Y21	Z21	X22	Y22	Z22	X23	Y23	Z23	X24	Y24	Z24	X25	Y25	Z25	X26	Y26	Z26	X27	Y27	Z27	X28	Y28	Z28	X29	Y29	Z29	X30	Y30	Z30	X31	Y31	Z31	X32	Y32	Z32	X33	Y33	Z33	X34	Y34	Z34	X35	Y35	Z35	X36	Y36	Z36	X37	Y37	Z37	X38	Y38	Z38	X39	Y39	Z39	X40	Y40	Z40	X41	Y41	Z41	X42	Y42	Z42	

102	1.010	1511.31860	-356.88193	1652.05420	1397.02197	-359.15848	1653.82153	1516.96240	-237.55783	1617.69702	1395.92505	-236.37541	1618.57104	1473.48523	-175.68517	1424.87000	1459.71936	-132.59303	1130.19312	1470.36694	-318.05811	1352.04944	1474.12219	-358.76755	1198.55664	1387.50403	-115.19047	1233.53967	1632.17395	-257.67230	1382.88354	1715.35034	-180.35919	1216.91785	1716.21619	-124.62090	1075.32007	1735.77368	-139.58118	959.28058	1711.28845	-195.83925	832.26941	1734.53674	-139.79468	837.01001	1745.39453	-172.67502	760.69708	1319.26501	-255.32515	1389.68213	1209.65833	-189.33238	1199.99939	1197.51147	-190.71616	1071.16846	1190.99683	-275.66510	977.31256	1241.33630	-398.05243	927.10986	1199.08118	-370.81427	900.62952	1209.20374	-445.85486	866.55573	1563.37866	-317.52475	924.75842	1344.73950	-303.58224	922.78192	1523.62805	-128.79951	935.80554	1380.47034	-122.10368	947.05402	1646.29028	-360.09518	608.73468	1628.43872	-401.05371	484.44049	1650.63513	-416.17978	302.17786	1614.55322	-480.41965	83.17992	1558.33533	-453.77454	35.89304	1622.09167	-626.65442	99.46868	1300.49268	-173.52000	602.59607	1329.75378	-137.43382	445.55316	1327.56531	-37.16833	299.91211	1378.56116	49.22194	111.39119	1425.14160	109.35618	94.25012	1393.12219	-71.39449	33.65232	1419.89783	-352.08115	1688.37793	-3101.85083	1973.14185	1023.48187	-3140.64136	2012.47754	1021.96313 
103	1.020	1513.17432	-369.94055	1650.53723	1398.89050	-371.63062	1652.47559	1519.33521	-250.65257	1616.05835	1398.27527	-248.94167	1617.12183	1475.54102	-188.92897	1422.88379	1461.16089	-146.48782	1128.28638	1471.98743	-331.38980	1350.51172	1475.19128	-372.56793	1197.16577	1389.32947	-128.47177	1231.86328	1634.04639	-271.36667	1380.83044	1716.81787	-193.78476	1214.86157	1717.12244	-137.52486	1073.47119	1736.59253	-151.09134	957.40167	1711.96777	-205.88794	829.73224	1735.08228	-149.78578	835.11029	1745.97925	-181.78098	758.48077	1321.01880	-268.16336	1388.30969	1210.98694	-202.04242	1199.18066	1198.48572	-203.27040	1070.23206	1192.20496	-289.02679	977.06299	1243.12500	-411.69116	928.01746	1200.57825	-384.88153	901.34796	1211.42505	-460.25684	867.95691	1563.26563	-332.59415	923.00403	1344.87195	-316.97119	921.40472	1525.75732	-143.63187	934.23187	1382.59729	-135.67421	945.52502	1647.76355	-374.31253	607.54175	1628.79810	-415.87146	484.02167	1651.15723	-434.30368	301.44434	1615.29138	-501.47791	83.35006	1559.31128	-475.18762	35.46756	1621.41345	-647.66791	101.73660	1300.61792	-185.08446	601.63507	1329.80261	-147.87721	444.91455	1327.42090	-44.01088	301.21356	1377.77087	46.17713	114.55643	1424.32910	106.94686	98.95422	1392.97583	-71.80933	33.61771	1421.83533	-364.60495	1686.97217	-3101.94946	1972.97729	1023.50464	-3140.64087	2012.42615	1022.01416 
104	1.030	1515.10657	-382.92471	1649.11926	1400.74194	-384.13663	1651.17090	1521.80139	-263.79147	1614.41113	1400.72424	-261.50323	1615.62012	1477.80212	-202.19966	1421.00208	1462.70007	-160.50620	1126.37048	1473.65430	-344.84143	1349.01392	1476.22742	-386.43805	1195.78711	1391.40015	-141.83699	1230.06897	1635.94678	-285.21188	1378.76990	1718.38879	-207.51256	1212.66675	1718.22668	-150.80727	1071.59741	1737.47620	-163.17136	955.39240	1712.72864	-216.76459	827.28674	1735.58667	-160.57539	833.12323	1746.58325	-191.86401	756.16174	1323.02600	-280.90570	1386.87341	1212.55005	-214.56770	1198.21619	1199.52332	-215.77733	1069.20862	1193.43640	-302.03244	976.59222	1244.84192	-424.86444	928.35675	1202.03760	-398.35153	901.54871	1213.45752	-474.10104	868.68866	1563.22131	-347.76602	921.22034	1345.02454	-330.54718	920.05255	1528.05103	-158.55247	932.63037	1385.04761	-149.29843	944.12415	1647.89954	-390.98203	607.39801	1628.78162	-431.61270	483.92029	1651.66467	-450.62134	300.31738	1615.53223	-519.03290	82.50265	1559.94543	-492.73972	34.39291	1620.47998	-665.34308	101.90054	1300.83594	-197.32520	600.81403	1329.80603	-159.14749	443.87527	1327.29407	-51.84798	302.63467	1377.08252	43.16945	117.99118	1423.49548	104.24862	104.17107	1392.82275	-72.24290	33.53163	1423.79919	-377.17316	1685.67786	-3101.95117	1973.16235	1023.47986	-3140.71143	2012.54407	1022.14514 
105	1.040	1517.09216	-395.94669	1647.65967	1402.83240	-396.53558	1650.02209	1524.37061	-276.86539	1612.74573	1403.27771	-273.97388	1614.10901	1480.09619	-215.55634	1419.10498	1464.34436	-174.59082	1124.40796	1475.28955	-358.38998	1347.57129	1477.27759	-400.36258	1194.42615	1393.68018	-155.23845	1228.14905	1637.92053	-299.07828	1376.66687	1720.02112	-221.48247	1210.38879	1719.43689	-164.44084	1069.52563	1738.48254	-175.84709	953.24023	1713.60474	-228.48189	824.89032	1736.51123	-172.27698	831.07117	1747.20703	-202.96002	753.77625	1325.01282	-293.64850	1385.48096	1214.33069	-226.91307	1197.05347	1200.68665	-228.17979	1068.19141	1194.65894	-314.78787	975.84033	1246.42151	-437.65820	928.17194	1203.47900	-411.44370	901.24359	1215.43506	-487.28790	868.80707	1563.38586	-363.15799	919.49481	1345.24756	-344.35513	918.63702	1530.25232	-173.39445	930.91107	1387.33679	-163.19502	942.22784	1646.94434	-409.22296	607.59442	1628.36353	-448.13818	483.73511	1651.70825	-465.72461	298.74615	1615.45215	-533.47986	80.90540	1559.97498	-506.68115	32.54977	1619.41907	-679.84692	99.90739	1301.16040	-210.11220	599.49054	1329.78174	-171.06279	442.66797	1327.04089	-60.28534	303.88550	1376.44128	39.53620	121.79105	1422.64746	100.95308	109.82750	1392.75159	-72.71935	33.50083	1425.83728	-389.53171	1684.33313	-3101.82397	1973.13513	1023.61768	-3140.60815	2012.48914	1022.10822 
